<svg xmlns="http://www.w3.org/2000/svg" xmlns:xlink="http://www.w3.org/1999/xlink" viewBox="-12.122 -8.851 154.122 1124.851" width="154.122" height="1124.851">
  <g id="open">
    <g id="g545">
      <path d=" M 47.261 23.399 C 48.806 16.54 54.488 8.142 63.089 10.338 C 78.705 14.325 76.119 44.971 59.715 40.645 C 50.713 38.271 45.307 32.07 47.261 23.399 Z  M 50.579 1.328 C 36.242 6.166 26.98 23.003 32.729 36.662 C 37.836 48.798 54.553 57.04 67.957 52.933 C 81.43 48.803 92.044 31.9 87.106 18.883 C 82.236 6.046 65.323 -3.647 50.579 1.328 Z " fill="rgb(255,255,255)"/>
    </g>
    <g id="g549">
      <path d=" M 62.039 71.345 C 61.096 74.186 57.755 76.13 54.624 75.662 C 54.342 72.622 54.272 69.565 54.414 66.516 C 55.449 66.082 56.577 65.849 57.71 65.812 C 58.656 65.783 59.638 65.899 60.45 66.354 C 62.164 67.315 62.632 69.557 62.039 71.345 Z  M 75.514 66.206 C 75.364 64.957 74.037 61.624 66.846 58.274 C 64.211 57.047 61.17 56.917 58.232 57.035 C 53.347 57.231 48.48 57.811 43.699 58.768 C 44.549 76.179 45.399 93.59 46.248 111 C 50.31 110.891 54.372 110.781 58.435 110.672 C 58.447 102.203 58.553 93.331 57.854 85.249 C 63.185 84.911 67.436 83.983 70.993 80.223 C 74.551 76.462 76.114 71.201 75.514 66.206" fill="rgb(255,255,255)"/>
    </g>
    <g id="g553">
      <path d=" M 53.623 148.808 C 58.74 148.055 64.057 148.264 69.175 147.511 C 69.174 144.168 69.174 140.825 69.174 137.482 C 64.253 137.485 59.332 137.488 54.411 137.491 C 54.41 133.581 54.409 129.671 54.407 125.762 C 61.291 125.305 68.183 124.96 75.08 124.728 C 75.078 121.231 75.078 117.735 75.077 114.239 C 63.144 113.85 54.891 113.863 42.995 114.833 C 44.127 132.323 41.554 150.092 42.686 167.582 C 53.879 167.594 65.734 168.516 76.883 167.582 C 77.103 163.952 76.663 158.939 76.883 155.308 C 69.394 155.308 61.904 155.308 54.415 155.308 C 53.896 153.509 53.495 150.668 53.623 148.808 Z " fill="rgb(255,255,255)"/>
    </g>
    <g id="g557">
      <path d=" M 48.786 219.622 C 47.939 212.721 47.939 198.658 48.785 190.988 C 53.122 197.323 61.678 210.414 66.83 216.179 C 67.537 216.97 68.293 217.784 69.313 218.163 C 70.182 218.486 71.147 218.456 72.08 218.422 L 83.669 217.992 C 82.761 201.745 81.809 187.473 81.809 171.072 C 77.575 171.072 73.245 170.764 68.942 171.421 C 68.769 182.199 69.616 194.549 70.124 204.731 C 64.771 196.777 57.92 187.01 52.567 179.057 C 51.512 177.49 49.216 174.679 47.43 172.867 C 47.43 172.867 41.164 172.867 37.669 173.883 C 38.975 189.887 38.057 204.731 39.471 219.861 C 42.821 219.742 45.437 219.741 48.786 219.622 Z " fill="rgb(255,255,255)"/>
    </g>
  </g>
  <g id="source">
    <g id="g521">
      <path d=" M 66.337 274.591 C 64.592 276.81 58.173 276.726 55.949 274.274 C 53.725 271.823 52.832 268.519 52.702 265.304 C 49.135 265.916 45.568 266.529 42 267.141 C 41.945 275.623 47.546 284.707 56.443 286.267 C 61.205 287.101 66.277 285.644 70.003 282.742 C 73.729 279.839 76.141 275.598 77.066 271.141 C 77.593 268.603 77.641 265.88 76.502 263.525 C 75.375 261.198 73.227 259.475 71.206 257.76 C 66.589 253.841 57.205 249.199 58.406 243.471 C 59.728 239.445 67.328 242.542 68.297 246.296 C 68.435 246.834 69.421 246.584 70.01 246.543 C 72.82 246.348 75.63 246.152 78.44 245.956 C 78.297 245.595 74.553 235.019 69.623 232.977 C 67.277 232.004 64.626 231.898 62.066 232.065 C 57.851 232.338 53.529 233.393 50.333 235.983 C 47.136 238.573 45.141 241.274 45.024 245.484 C 44.911 249.547 48.106 253.219 50.311 254.928 C 51.681 255.991 64.24 260.461 66.502 263.598 C 68.764 266.736 68.65 271.649 66.337 274.591 Z " fill="rgb(255,255,255)"/>
    </g>
    <g id="g525">
      <path d=" M 55.07 319.112 C 40.14 308.516 60.446 290.249 69 303.449 C 73.93 311.057 64.156 325.561 55.07 319.112 Z  M 52.2 291.56 C 43.2 294.58 40 300.787 40 312.426 C 39.999 320.98 52.168 337.178 65.08 334.248 C 90.571 328.464 80.934 281.919 52.2 291.56 Z " fill="rgb(255,255,255)"/>
    </g>
    <g id="g529">
      <path d=" M 46.482 383.158 C 47.612 385.289 49.248 387.126 50.98 388.834 C 52.214 390.05 55.783 392.098 58.776 392.098 C 61.109 392.098 70.173 388.207 70.754 387.536 C 74.542 383.169 75.71 380.274 76.627 374.636 C 77.543 368.998 77.4 363.255 77.255 357.549 C 77.077 350.584 76.924 344.564 76.747 337.598 C 73.005 337.793 69.393 338.575 65.721 338.72 C 67.128 349.291 68.533 360.026 66.889 370.564 C 66.629 372.231 66.279 373.924 65.398 375.375 C 64.516 376.827 63.005 378.017 61.271 378.131 C 59.556 378.244 57.909 377.287 56.835 375.987 C 55.762 374.686 55.173 373.076 54.69 371.477 C 51.638 361.389 52.041 350.665 52.47 340.16 C 49.34 340.151 46.209 340.142 43.079 340.133 C 43.405 350.14 43.73 360.148 44.055 370.155 C 44.2 374.596 44.387 379.206 46.482 383.158 Z " fill="rgb(255,255,255)"/>
    </g>
    <g id="g533">
      <path d=" M 58.026 414.182 C 57.695 414.298 57.338 414.326 56.985 414.339 C 55.91 414.381 54.829 414.298 53.774 414.094 C 53.844 411.543 53.913 408.992 53.983 406.44 C 55.533 406.524 57.145 406.192 58.61 406.678 C 59.305 406.909 59.931 407.322 60.401 407.858 C 60.708 408.209 60.95 408.615 61.057 409.059 C 61.372 410.355 60.513 411.621 59.696 412.704 C 59.246 413.3 58.753 413.929 58.026 414.182 Z  M 75.834 443.637 C 72.809 439.083 70.506 434.918 67.95 432.159 C 64.553 428.491 62.694 426.792 59.876 422.58 C 62.994 421.106 66.372 419.79 69.194 417.813 C 71.469 416.218 72.005 415.03 72.455 412.391 C 73.231 407.841 70.891 402.713 67.31 399.552 C 65.277 397.757 62.624 396.727 59.851 396.5 C 54.354 396.049 48.794 394.452 43.367 395.386 C 43.866 412.845 46.908 432.147 47.676 449.598 C 52.051 449.208 53.758 449.598 58.12 449.107 C 58.134 442.053 57.917 439.9 56.646 432.949 C 59.756 438.438 62.702 441.417 66.294 446.638 C 70.636 445.197 71.493 445.078 75.834 443.637 Z " fill="rgb(255,255,255)"/>
    </g>
    <g id="g537">
      <path d=" M 66.341 506.998 C 70.265 506.435 73.373 503.492 75.349 500.243 C 78.362 495.287 79.366 489.274 78.115 483.684 C 75.364 482.751 72.387 482.413 69.478 482.705 C 70.131 486.764 69.059 491.047 66.552 494.402 C 65.7 495.543 64.607 496.627 63.177 496.985 C 61.012 497.527 58.798 496.246 57.234 494.734 C 52.75 490.399 51.218 484.073 50.692 478.036 C 50.418 474.896 50.384 471.63 51.663 468.719 C 52.942 465.808 55.825 463.327 59.165 463.277 C 62.504 463.226 64.369 466.159 64.891 469.395 C 67.792 469.438 75.377 469.093 75.377 469.093 C 75.446 466.739 75.283 465.674 75.191 465.055 C 74.57 460.872 73.295 458.702 69.744 456.129 C 67.524 454.52 66.247 453.254 63.598 452.833 C 58.943 452.093 53.918 453.124 49.99 455.594 C 42.992 459.996 41.427 468.998 41.369 476.934 C 41.331 482.16 41.705 487.541 44.055 492.274 C 46.563 497.324 51.142 501.232 56.161 504.176 C 59.23 505.976 62.768 507.51 66.341 506.998 Z " fill="rgb(255,255,255)"/>
    </g>
    <g id="g541">
      <path d=" M 56.799 553.548 C 56.8 550.342 56.8 547.135 56.801 543.928 C 61.849 543.355 66.897 542.783 71.945 542.211 C 72.035 539.504 72.034 535.882 71.649 532.281 C 71.649 532.281 62.001 532.035 57.842 532.045 C 57.714 527.978 57.586 523.912 57.458 519.846 C 61.791 519.853 66.123 519.86 70.456 519.867 C 70.238 516.595 69.845 513.333 69.28 510.098 C 61.922 510.621 54.563 511.144 47.205 511.668 C 48.016 529.252 48.376 546.855 48.282 564.455 C 55.512 564.561 65.269 564.744 72.491 564.392 C 73.171 560.749 72.658 556.979 72.491 553.251 C 67.26 553.101 62.02 553.2 56.799 553.548 Z " fill="rgb(255,255,255)"/>
    </g>
  </g>
  <g id="and">
    <path d=" M 61.057 613.482 C 60 614.753 58.942 616.023 57.884 617.294 C 56.684 618.736 55.423 620.225 53.62 621.08 C 51.816 621.934 49.304 621.954 47.922 620.639 C 46.547 619.329 46.769 617.316 47.123 615.576 C 47.346 614.477 47.592 613.369 48.118 612.351 C 48.538 611.54 49.126 610.804 49.711 610.073 C 50.32 609.311 50.938 608.541 51.743 607.929 C 53.074 606.918 54.811 606.416 56.507 605.968 C 58.028 608.015 59.549 610.061 61.069 612.108 C 61.242 612.34 61.421 612.593 61.395 612.867 C 61.374 613.096 61.213 613.296 61.057 613.482 Z  M 50.056 584.85 C 50.491 584.368 50.936 583.878 51.523 583.537 C 52.624 582.896 55.063 582.811 56.171 583.122 C 58.01 583.637 58.911 585.926 58.911 587.783 C 58.911 590.479 54.449 593.896 53.222 595.071 C 53.021 595.264 52.787 595.47 52.488 595.483 C 51.979 594.813 51.471 594.144 50.962 593.474 C 50.538 592.915 50.109 592.348 49.876 591.711 C 49.671 591.148 49.428 587.805 49.35 586.726 C 49.328 586.426 49.786 585.15 50.056 584.85 Z  M 83.357 611.736 C 81.301 609.238 80.075 607.519 77.374 605.531 C 75.146 607.413 73.678 609.461 71.092 610.902 C 69.035 607.606 62.124 599.171 62.063 598.406 C 61.991 597.493 64.566 595.507 65.823 594.152 C 69.285 590.417 69.386 587.935 68.968 585.71 C 68.543 583.451 66.937 581.158 63.264 579.363 C 57.388 576.491 51.737 576.639 47.764 577.702 C 43.853 578.748 40.287 581.728 39.547 583.637 C 38.092 587.388 38.725 586.679 38.646 587.265 C 37.913 592.685 45.575 600.081 45.038 600.098 C 44.501 600.115 41.64 604.934 40.006 607.505 C 36.187 613.515 34.112 620.589 38.346 626.387 C 40.71 629.626 42.099 631.31 46.152 631.9 C 49.91 632.447 55.158 630.663 58.587 628.576 C 61.665 626.702 64.03 624.704 67.026 622.495 C 69.759 625.631 72.492 628.765 75.225 631.9 C 77.559 631.41 80.514 630.172 82.478 628.978 C 80.528 625.393 78.589 622.913 76.08 620.19 C 77.975 617.32 81.24 614.542 83.357 611.736 Z " fill="rgb(255,255,255)"/>
  </g>
  <g id="feelings">
    <g id="g489">
      <path d=" M 59.243 663.585 C 59.254 660.469 59.264 657.354 59.274 654.238 C 64.402 654.482 69.538 654.545 74.671 654.429 C 74.775 651.079 74.879 647.728 74.983 644.377 C 65.566 644.251 56.148 644.125 46.731 644 C 44.894 662.012 46.195 679.113 45.017 698.343 C 49.555 699.264 55.298 698.33 59.939 698.456 C 60.162 691.039 59.271 685.084 59.495 677.668 C 63.885 678.254 71.367 678.334 74.983 677.711 C 74.87 673.766 74.983 669.021 74.071 665.361 C 69.721 665.373 65.371 665.385 61.021 665.397 C 60.571 665.398 60.082 665.387 59.733 665.119 C 59.277 664.771 59.241 664.138 59.243 663.585 Z " fill="rgb(255,255,255)"/>
    </g>
    <g id="g493">
      <path d=" M 54.588 743.662 C 54.146 741.902 53.934 736.962 54.134 735.163 C 58.962 735.338 65.078 735.49 69.886 735.042 C 69.739 731.289 70.148 727.578 70.058 723.93 C 64.882 724.084 59.992 724.337 54.588 724.337 C 54.581 721.426 54.56 717.199 54.553 714.288 C 61.045 713.484 70.475 713.493 76.983 713.354 C 76.516 709.322 76.983 706.075 76.983 701.754 C 66.939 703.65 45.55 702.841 45.089 703.28 C 44.39 703.944 43.434 738.891 43 756.061 C 52.454 756.384 63.374 756.214 72.834 756.061 C 72.659 750.702 71.144 749.554 71.511 744.204 C 65.789 743.854 60.31 744.013 54.588 743.662 Z " fill="rgb(255,255,255)"/>
    </g>
    <g id="g497">
      <path d=" M 55.03 780.924 C 54.643 777.065 54.927 773.146 55.87 769.373 C 61.45 769.264 67.031 769.155 72.61 769.046 C 72.612 765.857 72.615 762.667 72.617 759.477 C 63.755 758.567 54.744 758.961 46.009 760.642 C 46.275 778.322 45.938 796.01 45 813.669 C 54.373 812.946 63.176 813.913 73.414 813.73 C 74.484 808.675 74.584 806.025 74.67 800.872 C 68.706 800.999 62.742 801.126 56.778 801.254 C 56.658 798.425 56.538 795.596 56.418 792.768 C 61.781 792.237 67.174 791.971 72.567 791.971 C 72.475 788.003 72.581 784.031 72.885 780.072 C 66.923 780.025 60.957 780.309 55.03 780.924 Z " fill="rgb(255,255,255)"/>
    </g>
    <g id="g501">
      <path d=" M 76.543 859.919 C 69.618 860.122 64.595 858.725 57.671 858.928 C 56.527 843.219 55.384 833.036 56.813 816.022 C 53.264 815.945 46.612 816.099 43.063 816.022 C 42.793 834.139 43.376 852.747 45.036 870.294 C 55.098 870.595 66.532 870.417 76.768 869.828 C 76.694 866.525 76.618 863.222 76.543 859.919 Z " fill="rgb(255,255,255)"/>
    </g>
    <g id="g505">
      <path d=" M 49.84 874.099 C 50.984 889.069 52.128 904.038 53.273 919.007 C 53.552 922.66 53.65 923.949 53.93 927.601 C 58.501 927.777 65.588 926.048 70.16 926.224 C 69.289 906.577 68.666 893.869 68.413 875.555 C 62.551 873.373 56.003 872.86 49.84 874.099 Z " fill="rgb(255,255,255)"/>
    </g>
    <g id="g509">
      <path d=" M 59.31 942.1 C 57.557 938.106 55.804 934.111 54.052 930.117 C 48.586 930.648 44.793 930.648 39.724 932.588 C 39.724 938.456 39.724 970.659 40.45 983.368 C 45.382 983.578 49.669 983.354 55.117 982.158 C 54.349 971.069 53.709 961.82 52.942 950.731 C 57.254 961.714 62.721 970.768 67.969 982.028 C 71.441 981.698 76.804 980.956 80.276 980.626 C 80.13 974.365 79.135 968.066 79.193 961.714 C 79.278 952.3 79.482 943.553 78.778 930.038 C 74.859 929 70.937 929.059 65.379 929 C 65.974 938.91 67.218 951.57 67.814 961.481 C 65.476 956.154 63.139 950.826 60.801 945.5 C 60.304 944.367 59.807 943.234 59.31 942.1 Z " fill="rgb(255,255,255)"/>
    </g>
    <g id="g513">
      <path d=" M 41.892 1023.767 C 42.159 1025.457 42.531 1027.159 43.366 1028.674 C 44.852 1031.37 47.888 1035.486 50.752 1036.877 C 55.91 1039.38 61.479 1039.595 67.208 1038.734 C 71.325 1038.116 74.399 1035.499 75.428 1033.42 C 78.084 1028.056 79.295 1022.062 78.915 1016.152 C 78.874 1015.507 78.595 1013.85 78.183 1013.333 C 78.183 1013.333 76.614 1013.379 75.585 1013.302 C 70.72 1012.941 65.835 1012.814 60.957 1012.922 C 60.955 1015.675 60.951 1018.428 60.949 1021.181 C 63.166 1021.175 65.383 1021.169 67.6 1021.164 C 68.167 1024.332 65.14 1027.431 61.752 1027.762 C 58.364 1028.092 55.045 1026.122 53.213 1023.412 C 51.381 1020.703 50.837 1017.38 50.868 1014.167 C 50.908 1010.146 51.792 1006.135 53.453 1002.432 C 54.85 999.319 57.089 996.203 60.525 995.244 C 63.96 994.284 66.829 996.977 67.955 1000.126 C 71.395 1000.353 74.871 1000.077 78.222 999.312 C 78.576 997.288 77.651 995.262 76.523 993.509 C 72.518 987.288 64.38 982.701 57.087 985.074 C 52.077 986.706 48.692 991.13 46.395 995.637 C 41.975 1004.311 40.384 1014.248 41.892 1023.767 Z " fill="rgb(255,255,255)"/>
    </g>
    <g id="g517">
      <path d=" M 75.187 1075.08 C 73.173 1071.907 64.003 1066.929 60.168 1063.395 C 58.751 1062.089 57.304 1060.744 56.465 1059.051 C 55.628 1057.358 55.321 1054.708 56.511 1053.213 C 57.7 1051.719 60.652 1051.719 62.218 1052.78 C 63.369 1053.699 63.233 1056.471 63.233 1056.471 C 65.366 1056.37 70.161 1056.309 71.994 1055.938 C 72.467 1052.257 72.701 1049.478 70.515 1046.397 C 68.472 1043.516 64.585 1042.222 60.912 1042.193 C 51.534 1042.123 48.308 1044.477 45.621 1048.221 C 43.124 1051.699 43.018 1058.78 44.833 1061.756 C 47.111 1065.487 54.135 1067.941 57.398 1070.75 C 60.83 1073.704 69.48 1078.299 63.333 1082.74 C 61.931 1084.148 57.979 1083.085 56.499 1081.75 C 55.018 1080.415 54.461 1078.412 54.227 1076.492 C 51.097 1077.219 50.288 1076.604 47.195 1077.354 C 46.408 1081.811 47.279 1087.923 50.406 1091.799 C 53.534 1095.676 58.449 1096.978 63.529 1096.11 C 67.881 1095.366 70.871 1094.44 74.417 1091.158 C 77.574 1088.235 77.804 1079.202 75.187 1075.08 Z " fill="rgb(255,255,255)"/>
    </g>
  </g>
</svg>
